<?xml version="1.0" encoding="utf-8"?>
<!-- Generator: Adobe Illustrator 22.0.1, SVG Export Plug-In . SVG Version: 6.00 Build 0)  -->
<svg version="1.1" id="Layer_2_1_" xmlns="http://www.w3.org/2000/svg" xmlns:xlink="http://www.w3.org/1999/xlink" x="0px" y="0px"
	 viewBox="0 0 521.9 518.7" style="enable-background:new 0 0 521.9 518.7;" xml:space="preserve">
<style type="text/css">
	.st0{fill:#0D2240;}
</style>
<g id="new_7_">
	<g>
		<path class="st0" d="M84,356.2c-18.1,8.6-42,19.1-68.7,28.6c4.8,20,11.4,38.2,20,54.4c20-12.4,37.2-25.8,50.6-36.3
			C84,386.7,83,371.5,84,356.2z"/>
		<path class="st0" d="M127.9,208.3L127.9,208.3C94.5,195,43.9,171.1,2,139.7v45.8c0,8.6,0,17.2,0,24.8
			c39.1,14.3,79.2,23.8,107.8,28.6C115.5,228.4,122.1,217.9,127.9,208.3z"/>
		<path class="st0" d="M175.6,154.9c-22.9-23.8-55.3-62-80.1-103L31.5,73.8c35.3,44.8,85.9,83.9,119.2,105.9
			C158.4,171.1,167,162.5,175.6,154.9z"/>
		<path class="st0" d="M205.1,133L205.1,133c11.4-7.6,22.9-13.4,33.4-18.1c-9.5-25.8-21-63.9-27.7-103l-57.2,20
			C168.9,71.9,188.9,108.2,205.1,133z"/>
		<path class="st0" d="M96.4,275.1L96.4,275.1c-24.8,1-58.2,1-93.5-3.8c1,20,1.9,39.1,2.9,57.2c30.5-3.8,59.1-9.5,81.1-15.3l0,0
			C89.7,299.9,92.6,287.5,96.4,275.1z"/>
		<path class="st0" d="M95.4,456.4c-7.6,8.6-15.3,18.1-25.8,28.6c7.6,7.6,16.2,14.3,25.8,21c5.7,3.8,12.4,7.6,18.1,12.4
			C106.9,495.5,100.2,475.4,95.4,456.4z"/>
		<path class="st0" d="M369.2,220.7c5.7,4.8,21,0,21,0l-10.5-12.4l-22.9-15.3C355.9,193.1,362.5,216,369.2,220.7z"/>
		<polygon class="st0" points="443.6,349.5 430.3,338.1 437.9,357.2 460.8,356.2 		"/>
		<path class="st0" d="M277.6,0.4c-9.5,30.5-12.4,67.7-1.9,104.9l0,0l0,0c3.8-3.8,33.4-34.3,60.1-63.9c0,0,35.3,40.1-14.3,81.1
			c0,0,86.8,61.1,92.5,63c0,0-4.8,19.1,0,35.3l68.7,132.6l-34.3,41l-50.6-28.6l24.8,39.1c0,0-27.7,3.8-36.3-1
			c-4.8-24.8-26.7-64.9-26.7-64.9l-51.5-21c0,0-22.9-27.7-21-67.7c0,0-25.8,104.9,43.9,131.6L428.4,505
			c88.7-62,91.6-147.9,91.6-319.6V84.3L277.6,0.4z"/>
	</g>
</g>
</svg>
